<svg width="20" height="20" viewBox="0 0 20 20" fill="none" xmlns="http://www.w3.org/2000/svg">
<path fill-rule="evenodd" clip-rule="evenodd" d="M4 0C1.79086 0 0 1.79086 0 4V16C0 18.2091 1.79086 20 4 20H16C18.2091 20 20 18.2091 20 16V4C20 1.79086 18.2091 0 16 0H4ZM5.388 13.7C5.948 13.996 6.564 14.144 7.236 14.144C7.724 14.144 8.172 14.052 8.58 13.868C8.988 13.676 9.36 13.392 9.696 13.016L8.808 11.972C8.624 12.148 8.412 12.3 8.172 12.428C7.932 12.556 7.66 12.62 7.356 12.62C6.964 12.62 6.616 12.52 6.312 12.32C6.016 12.12 5.784 11.832 5.616 11.456C5.448 11.072 5.364 10.612 5.364 10.076C5.364 9.564 5.452 9.12 5.628 8.744C5.804 8.368 6.036 8.08 6.324 7.88C6.62 7.672 6.94 7.568 7.284 7.568C7.564 7.568 7.816 7.616 8.04 7.712C8.264 7.8 8.472 7.936 8.664 8.12L9.6 7.052C9.336 6.772 9.004 6.532 8.604 6.332C8.204 6.132 7.752 6.032 7.248 6.032C6.752 6.032 6.28 6.124 5.832 6.308C5.392 6.492 5 6.76 4.656 7.112C4.312 7.464 4.04 7.896 3.84 8.408C3.648 8.912 3.552 9.488 3.552 10.136C3.552 11.008 3.72 11.744 4.056 12.344C4.392 12.944 4.836 13.396 5.388 13.7ZM9.80663 6.176L12.1226 14H14.2466L16.6466 6.176H14.8466L13.8746 9.824L13.6586 10.664C13.5866 10.944 13.5186 11.22 13.4546 11.492C13.3906 11.764 13.3226 12.044 13.2506 12.332H13.2026C13.1226 12.044 13.0466 11.764 12.9746 11.492C12.9106 11.22 12.8426 10.944 12.7706 10.664C12.7066 10.384 12.6386 10.104 12.5666 9.824L11.6786 6.176H9.80663Z" fill="black"/>
</svg>
