<svg width="20" height="20" viewBox="0 0 20 20" fill="none" xmlns="http://www.w3.org/2000/svg">
<g clip-path="url(#clip0_127_62)">
<path d="M2 0H18C19.1 0 20 0.9 20 2V18C20 19.1 19.1 20 18 20H12.85C12.5 19.92 12.5 19.24 12.5 19V16.26C12.5 15.33 12.17 14.72 11.81 14.41C14.04 14.16 16.38 13.32 16.38 9.5C16.38 8.39 16 7.5 15.35 6.79C15.45 6.54 15.8 5.5 15.25 4.15C15.25 4.15 14.41 3.88 12.5 5.17C11.71 4.95 10.85 4.84 10 4.84C9.15 4.84 8.29 4.95 7.5 5.17C5.59 3.88 4.75 4.15 4.75 4.15C4.2 5.5 4.55 6.54 4.65 6.79C4 7.5 3.62 8.39 3.62 9.5C3.62 13.31 5.95 14.17 8.17 14.42C7.89 14.67 7.63 15.11 7.54 15.76C6.97 16 5.5 16.45 4.63 14.93C4.63 14.93 4.1 13.97 3.1 13.9C3.1 13.9 2.12 13.88 3 14.5C3 14.5 3.68 14.81 4.14 15.97C4.14 15.97 4.73 17.91 7.5 17.31V19C7.5 19.24 7.5 19.92 7.14 20H2C0.9 20 0 19.1 0 18V2C0 0.9 0.9 0 2 0Z" fill="black"/>
</g>
<defs>
<clipPath id="clip0_127_62">
<rect width="20" height="20" rx="4" fill="white"/>
</clipPath>
</defs>
</svg>
