<svg width="55" height="55" viewBox="0 0 55 55" fill="none" xmlns="http://www.w3.org/2000/svg">
<path d="M28.4567 3.6903L27.5 3.29402L26.5433 3.6903L11.3405 9.98751L10.3838 10.3838L9.98751 11.3405L3.6903 26.5433L3.29402 27.5L3.6903 28.4567L9.98751 43.6595L10.3838 44.6162L11.3405 45.0125L26.5433 51.3097L27.5 51.706L28.4567 51.3097L43.6595 45.0125L44.6162 44.6162L45.0125 43.6595L51.3097 28.4567L51.706 27.5L51.3097 26.5433L45.0125 11.3405L44.6162 10.3838L43.6595 9.98751L28.4567 3.6903Z" stroke="black" stroke-width="5"/>
<path d="M19.2789 19.2784L27.5007 15.8728L35.7225 19.2784L39.128 27.5001L35.7225 35.7219L27.5007 39.1275L19.2789 35.7219L15.8733 27.5001L19.2789 19.2784Z" stroke="#80F3D0" stroke-width="5"/>
<mask id="path-3-inside-1_16_764" fill="white">
<ellipse cx="27.4996" cy="27.8585" rx="4.3" ry="3.94167"/>
</mask>
<path d="M27.7996 27.8585C27.7996 27.8052 27.8128 27.7534 27.8297 27.7169C27.8446 27.6846 27.8538 27.6819 27.8372 27.697C27.8015 27.7298 27.6925 27.8001 27.4996 27.8001V35.8001C31.7488 35.8001 35.7996 32.565 35.7996 27.8585H27.7996ZM27.4996 27.8001C27.3066 27.8001 27.1977 27.7298 27.1619 27.697C27.1454 27.6819 27.1546 27.6846 27.1695 27.7169C27.1863 27.7534 27.1996 27.8052 27.1996 27.8585H19.1996C19.1996 32.565 23.2504 35.8001 27.4996 35.8001V27.8001ZM27.1996 27.8585C27.1996 27.9117 27.1863 27.9636 27.1695 28.0001C27.1546 28.0324 27.1454 28.035 27.1619 28.0199C27.1977 27.9871 27.3066 27.9168 27.4996 27.9168V19.9168C23.2504 19.9168 19.1996 23.1519 19.1996 27.8585H27.1996ZM27.4996 27.9168C27.6925 27.9168 27.8015 27.9871 27.8372 28.0199C27.8538 28.035 27.8446 28.0324 27.8297 28.0001C27.8128 27.9636 27.7996 27.9117 27.7996 27.8585H35.7996C35.7996 23.1519 31.7488 19.9168 27.4996 19.9168V27.9168Z" fill="black" mask="url(#path-3-inside-1_16_764)"/>
</svg>
